<svg xmlns:inkscape="http://www.inkscape.org/namespaces/inkscape" xmlns:sodipodi="http://sodipodi.sourceforge.net/DTD/sodipodi-0.dtd" xmlns="http://www.w3.org/2000/svg" xmlns:svg="http://www.w3.org/2000/svg" version="1.1" id="svg1" width="512" height="512" viewBox="0 0 512 512" sodipodi:docname="MG.svg" inkscape:version="1.4 (86a8ad7, 2024-10-11)" transform="matrix(1, 0, 0, 1, 0, 0)">
  <defs id="defs1" fill="#ffffff"/>
  <sodipodi:namedview id="namedview1" pagecolor="#ffffff" bordercolor="#ffffff" borderopacity="0.25" inkscape:showpageshadow="2" inkscape:pageopacity="0.0" inkscape:pagecheckerboard="0" inkscape:deskcolor="#d1d1d1" inkscape:zoom="0.7278228" inkscape:cx="276.16612" inkscape:cy="217.08581" inkscape:window-width="2560" inkscape:window-height="1316" inkscape:window-x="2676" inkscape:window-y="-12" inkscape:window-maximized="1" inkscape:current-layer="g1" fill="#ffffff"/>
  <g inkscape:groupmode="layer" inkscape:label="Image" id="g1">
    <path style="fill:#ffffff" d="m 462.5,510.65982 c -2.75,-0.71069 -6.8,-2.11801 -9,-3.12737 -2.74351,-1.25872 -23.33237,-21.11661 -65.54428,-63.21726 -61.54427,-61.38206 -61.54427,-61.38206 -71,-55.67208 -5.20064,3.14049 -13.72608,7.70937 -18.9454,10.15307 -5.21933,2.4437 -15.34433,6.39085 -22.5,8.77145 -7.15568,2.38059 -17.51032,5.23039 -23.01032,6.3329 -5.5,1.10251 -13.81319,2.47591 -18.47377,3.05201 -4.66057,0.5761 -16.07781,1.04746 -25.37166,1.04746 -9.986,0 -21.2453,-0.63195 -27.52623,-1.54496 C 175.28275,415.60531 166,413.83785 160.5,412.52734 c -5.5,-1.3105 -14.275,-3.80846 -19.5,-5.55101 -5.225,-1.74255 -14.9,-5.74509 -21.5,-8.89455 -6.6,-3.14945 -15.69915,-8.02588 -20.220325,-10.8365 -4.52118,-2.81062 -11.94618,-7.93903 -16.5,-11.39646 -4.55382,-3.45743 -12.50972,-10.35032 -17.67978,-15.31753 C 59.929845,355.56408 52.310496,347.45 48.168017,342.5 44.025538,337.55 37.835091,329.225 34.411468,324 c -3.423623,-5.225 -8.686652,-14.45 -11.695619,-20.5 -3.008968,-6.05 -7.141228,-15.47532 -9.182799,-20.94515 -2.041572,-5.46984 -4.9993889,-14.91984 -6.5729279,-21 C 5.3865841,255.47468 3.4156821,245.775 2.5803401,240 c -0.835342,-5.775 -1.812333,-15.9 -2.17109,-22.5 -0.376634,-6.92886 -0.158427,-17.49373 0.516349,-25 0.642749,-7.15 2.265568,-18.46574 3.606264,-25.1461 1.340697,-6.68035 3.973749,-16.83545 5.8512269,-22.56688 1.877479,-5.73143 5.612689,-15.34069 8.300469,-21.3539 C 21.371338,117.4199 26.095147,108.225 29.180911,103 32.266675,97.775003 38.314689,88.775003 42.62094,83.000003 c 4.306252,-5.775 12.851823,-15.501836 18.990155,-21.615187 6.13834,-6.113351 16.04948,-14.761001 22.02476,-19.216999 5.97528,-4.455998 15.63949,-10.837617 21.476015,-14.181375 5.83653,-3.343758 15.82181,-8.287469 22.18952,-10.986024 6.3677,-2.698555 16.21736,-6.251978 21.88812,-7.8964959 C 154.86028,7.4594041 164,5.2217601 169.5,4.1313801 c 5.5,-1.090381 15.85,-2.521764 23,-3.18085197 7.78159,-0.717308 18.01771,-0.931493 25.5,-0.533574 6.875,0.365622 17,1.35186797 22.5,2.19165697 5.5,0.83979 14.275,2.592786 19.5,3.895548 5.225,1.302762 14.21604,4.0148189 19.98008,6.0267939 5.76404,2.011975 15.66558,6.214908 22.00342,9.339852 6.33784,3.124944 15.5718,8.314408 20.51992,11.532143 4.94812,3.217734 12.83783,8.90652 17.5327,12.641747 4.69486,3.735226 13.46986,11.893858 19.5,18.130293 6.03013,6.236435 13.55878,14.799615 16.73032,19.029285 3.17154,4.22967 7.96445,11.23425 10.65092,15.56573 2.68647,4.331477 6.89281,11.892697 9.34743,16.802707 2.45462,4.91001 6.13406,13.17495 8.17655,18.36653 2.04249,5.19159 5.24583,15.41756 7.11855,22.7244 1.87271,7.30683 4.08785,18.49472 4.92252,24.86197 0.83468,6.36725 1.51759,18.9633 1.51759,27.99122 0,9.3368 -0.67008,21.28003 -1.55405,27.69879 -0.85473,6.20641 -2.69646,15.97322 -4.09274,21.70403 -1.39627,5.7308 -4.05377,14.77237 -5.90554,20.09236 -1.85177,5.32 -5.33322,13.90616 -7.73655,19.08036 -2.40334,5.1742 -6.93789,13.6649 -10.07678,18.86823 -5.70709,9.4606 -5.70709,9.4606 55.27628,70.5 47.39329,47.43683 61.52999,62.15365 63.43623,66.0394 1.34908,2.75 2.99574,7.66412 3.65925,10.92026 0.6723,3.29924 0.92181,8.16917 0.56359,11 -0.35354,2.79386 -1.33927,7.22252 -2.19051,9.84147 -0.85124,2.61896 -3.21661,6.98284 -5.25637,9.69751 -2.03977,2.71467 -5.71435,6.5354 -8.16574,8.49051 -2.45139,1.95511 -6.83086,4.45164 -9.73215,5.54784 -2.9013,1.09621 -8.3013,2.2094 -12,2.47375 -3.89988,0.27873 -8.82535,-0.0622 -11.72492,-0.81152 z m 20.65265,-22.2059 c 2.30659,-1.62466 5.27591,-4.97892 6.59849,-7.45392 1.96925,-3.68514 2.33795,-5.61258 2.03612,-10.64416 -0.27872,-4.64632 -1.02328,-7.08415 -3.05419,-10 -1.4771,-2.12071 -18.22157,-19.37866 -37.20995,-38.351 C 416.9988,387.50967 416.9988,387.50967 402.2494,402.26917 387.5,417.02868 387.5,417.02868 423.5,452.95823 c 21.29142,21.24975 37.43,36.57148 39.5,37.5007 2.30907,1.03655 5.61967,1.46529 9.72943,1.26003 4.98083,-0.24877 7.07001,-0.90319 10.42322,-3.26504 z M 388.23706,388.2634 C 395.80668,380.70827 402,374.07604 402,373.52513 c 0,-0.55092 -6.79287,-7.80517 -15.09527,-16.12055 C 371.80945,342.2857 371.80945,342.2857 357.06172,356.89285 342.31399,371.5 342.31399,371.5 357.39489,386.75 c 8.2945,8.3875 15.53053,15.25 16.08007,15.25 0.54953,0 7.19248,-6.18147 14.7621,-13.7366 z m -161.66074,9.67038 C 232.58435,397.34736 242,395.97305 247.5,394.87976 c 5.5,-1.09328 15.38597,-3.78094 21.96883,-5.97258 6.58285,-2.19164 16.93285,-6.40073 23,-9.35354 6.06714,-2.95281 15.75617,-8.5056 21.53117,-12.33953 5.775,-3.83393 14.325,-10.32128 19,-14.41635 4.675,-4.09506 11.6083,-10.78731 15.40733,-14.87166 3.79903,-4.08436 9.57635,-11.00627 12.83849,-15.38204 3.26213,-4.37576 8.45929,-12.25076 11.54923,-17.5 3.08994,-5.24923 7.49631,-13.81906 9.79192,-19.04406 2.29562,-5.225 5.55726,-13.82918 7.24809,-19.12039 1.69084,-5.29122 3.96871,-14.06622 5.06194,-19.5 1.09324,-5.43379 2.52193,-15.50461 3.17488,-22.37961 0.70234,-7.39507 0.91634,-17.33841 0.52401,-24.3474 -0.36474,-6.51606 -1.52662,-16.86606 -2.58196,-23 C 394.9586,171.51867 392.78887,162 391.19231,156.5 c -1.59656,-5.5 -4.15716,-13.15 -5.69021,-17 -1.53305,-3.85 -4.57067,-10.57197 -6.75027,-14.93772 -2.1796,-4.36574 -6.20217,-11.54814 -8.93905,-15.96089 -2.73687,-4.41275 -7.81245,-11.640777 -11.27906,-16.062287 -3.4666,-4.42151 -9.98835,-11.75007 -14.49276,-16.2857 -4.50442,-4.53562 -11.4588,-10.917748 -15.45419,-14.182498 -3.99538,-3.26475 -11.49939,-8.680031 -16.67555,-12.033957 -5.17617,-3.353927 -14.02357,-8.349714 -19.6609,-11.10175 -5.63732,-2.752035 -15.60233,-6.79334 -22.14447,-8.980678 -6.54214,-2.187337 -16.10479,-4.8552 -21.25032,-5.928584 C 243.70999,22.952553 235.45,21.611298 230.5,21.04537 c -4.95,-0.565928 -14.63681,-1.032653 -21.52623,-1.037165 -6.88943,-0.0045 -16.33943,0.464895 -21,1.043129 C 183.31319,21.629568 175,23.029852 169.5,24.163076 c -5.5,1.133224 -14.55446,3.584278 -20.12103,5.446786 -5.56657,1.862508 -13.66657,4.997679 -18,6.967046 -4.33343,1.969367 -11.87417,5.862052 -16.7572,8.650412 -4.88303,2.788359 -13.43303,8.452443 -19.000005,12.586853 -5.56697,4.13441 -14.64625,12.05507 -20.17619,17.60147 -5.52993,5.54639 -12.87282,13.81021 -16.31753,18.36403 C 55.683338,98.333493 50.565502,105.7585 47.75508,110.27968 44.944658,114.80085 40.519476,123 37.921342,128.5 c -2.598135,5.5 -6.325018,14.78955 -8.281963,20.64345 -1.956945,5.8539 -4.455018,15.0789 -5.551273,20.5 -1.096255,5.4211 -2.464547,13.66974 -3.040649,18.33032 -0.576101,4.66057 -1.043765,14.11057 -1.039252,21 0.0045,6.88942 0.471237,16.57623 1.037165,21.52623 0.565928,4.95 1.907183,13.20999 2.980566,18.35553 1.073384,5.14553 3.741247,14.70818 5.928584,21.25032 2.187338,6.54214 6.228643,16.50715 8.980678,22.14447 2.752036,5.63733 7.747823,14.48473 11.10175,19.6609 3.353926,5.17616 8.748757,12.65514 11.988507,16.61993 3.23975,3.9648 9.39688,10.69692 13.6825,14.96026 4.28563,4.26335 11.39204,10.6511 15.79204,14.19502 4.4,3.54392 12.050005,8.96828 17.000005,12.05414 4.95,3.08587 13.95,7.95961 20,10.83056 6.05,2.87094 15.275,6.60978 20.5,8.30853 5.225,1.69875 13.325,3.97005 18,5.04733 4.675,1.07728 12.1,2.43334 16.5,3.01347 4.4,0.58012 9.575,1.20883 11.5,1.39712 1.925,0.18829 7.35935,0.41436 12.07632,0.50238 4.71698,0.088 13.49198,-0.31976 19.5,-0.90618 z M 189.5,371.37922 c -1.65,-0.23753 -6.6,-1.11375 -11,-1.94715 -4.4,-0.83341 -12.5,-2.87359 -18,-4.53375 -5.5,-1.66015 -16.3,-6.11976 -24,-9.91024 -9.16525,-4.51178 -17.65012,-9.64407 -24.56966,-14.8616 -5.81331,-4.3834 -15.150055,-12.76728 -20.748325,-18.63083 -5.59828,-5.86356 -13.34321,-15.39346 -17.21096,-21.17757 -3.86775,-5.7841 -9.02765,-14.674 -11.46646,-19.75533 -2.4388,-5.08134 -5.827414,-13.39731 -7.530251,-18.47994 -1.702837,-5.08262 -3.958238,-13.14302 -5.012002,-17.91197 -1.053764,-4.76896 -2.456022,-14.66804 -3.116129,-21.99794 -0.934525,-10.37708 -0.933728,-16.13232 0.0036,-26 0.662089,-6.9701 2.094547,-16.7229 3.183239,-21.6729 1.088693,-4.95 3.161083,-12.6 4.605312,-17 1.444229,-4.4 4.777371,-12.5961 7.406991,-18.21356 2.62961,-5.61745 7.21258,-13.94245 10.18438,-18.5 2.97179,-4.55754 8.90571,-12.4597 13.18649,-17.56035 4.28078,-5.100657 11.59392,-12.525657 16.251425,-16.500007 4.65751,-3.97434 11.92513,-9.61352 16.15027,-12.5315 4.22514,-2.91797 13.08208,-7.936048 19.68208,-11.151272 6.6,-3.215224 15.6,-7.012476 20,-8.438338 4.4,-1.425862 12.05,-3.482187 17,-4.569611 4.95,-1.087424 14.7874,-2.512392 21.86089,-3.166595 9.92021,-0.917487 15.86519,-0.918839 26,-0.0059 7.22651,0.650953 17.04099,2.045722 21.80995,3.099486 4.76895,1.053764 12.82935,3.309165 17.91197,5.012002 5.08263,1.702837 13.3986,5.091452 18.47994,7.530255 5.08133,2.438802 14.07491,7.668038 19.98573,11.620523 6.00812,4.01755 15.36884,11.63737 21.22871,17.28061 5.76497,5.55185 13.99035,14.766477 18.27862,20.476967 4.28828,5.71048 10.51565,15.64274 13.83862,22.07168 3.32296,6.42894 7.64009,16.46557 9.59362,22.30362 1.95354,5.83805 4.53775,15.03079 5.74269,20.42832 1.89368,8.48267 2.19374,12.86531 2.21238,32.31368 0.019,19.78721 -0.25482,23.76597 -2.27077,33 -1.26078,5.775 -3.63348,14.55 -5.27267,19.5 -1.6392,4.95 -5.66929,14.4 -8.95576,21 -3.28647,6.6 -8.84813,16.00113 -12.35923,20.8914 -3.5111,4.89028 -9.38973,12.2103 -13.06362,16.26672 -3.67388,4.05643 -10.35658,10.44624 -14.85043,14.19958 -4.49385,3.75335 -10.90821,8.66171 -14.25413,10.90747 -3.34592,2.24577 -10.32092,6.32562 -15.5,9.06635 -5.17908,2.74073 -13.69151,6.55828 -18.91651,8.48345 -5.225,1.92517 -14.9,4.73932 -21.5,6.25367 -10.62939,2.43887 -14.28435,2.78128 -32,2.9979 -11,0.1345 -21.35,0.0502 -23,-0.18732 z m 47.5919,-21.39278 c 5.72446,-1.16372 13.7831,-3.24465 17.9081,-4.62428 4.125,-1.37963 11.29985,-4.28726 15.94412,-6.46139 4.64426,-2.17413 12.96926,-6.96069 18.5,-10.63679 6.36776,-4.23244 14.11754,-10.7329 21.13023,-17.7239 7.2138,-7.19148 13.39239,-14.54558 17.7239,-21.09596 3.65725,-5.53074 8.42839,-13.85574 10.60252,-18.5 2.17413,-4.64427 5.08176,-11.81912 6.46139,-15.94412 1.37963,-4.125 3.41953,-12 4.53312,-17.5 1.11358,-5.5 2.32315,-14.725 2.68792,-20.5 0.39253,-6.2144 0.17693,-14.98967 -0.52821,-21.5 -0.65529,-6.05 -2.04112,-14.64579 -3.07962,-19.10175 -1.0385,-4.45596 -3.23358,-11.78824 -4.87796,-16.29396 -1.64439,-4.50572 -5.25885,-12.50233 -8.03214,-17.77026 -2.77329,-5.26793 -7.57924,-13.10148 -10.67988,-17.40789 -3.10064,-4.30641 -9.74329,-11.91315 -14.76146,-16.90388 C 305.60577,103.03154 297.45,96.049063 292.5,92.505653 c -4.95,-3.54341 -13.5,-8.69468 -19,-11.44725 -5.5,-2.75258 -14.12694,-6.37032 -19.17098,-8.03941 -5.04404,-1.6691 -14.71904,-3.984005 -21.5,-5.14424 C 222.42601,66.094779 218.00051,65.85308 204.5,66.327557 c -8.8,0.309277 -19.375,1.292971 -23.5,2.185987 -4.125,0.893017 -12.07206,3.141769 -17.66013,4.997229 -5.58808,1.85547 -13.46308,5.02879 -17.5,7.05184 -4.03693,2.02305 -10.93987,6.03645 -15.33987,8.91866 -4.4,2.88222 -11.44718,8.20692 -15.6604,11.832667 -4.21322,3.62575 -10.79492,10.32587 -14.626,14.88917 C 96.382515,120.7664 91.224185,127.65 88.750645,131.5 c -2.47354,3.85 -6.15536,10.30294 -8.18182,14.33987 -2.02647,4.03692 -5.20259,11.91192 -7.05805,17.5 -1.85546,5.58807 -4.10421,13.53513 -4.99723,17.66013 -0.89302,4.125 -1.87671,14.7 -2.18599,23.5 -0.47448,13.50051 -0.23278,17.92601 1.5472,28.32902 1.16023,6.78096 3.48663,16.45596 5.16977,21.5 1.68314,5.04404 5.29898,13.67098 8.03521,19.17098 2.73622,5.5 7.86212,14.02867 11.39088,18.95261 3.52875,4.92393 10.564535,13.11672 15.635075,18.2062 5.07053,5.08948 12.69116,11.75347 16.93472,14.80886 4.24356,3.05539 12.02569,7.82431 17.29362,10.5976 5.26793,2.77329 13.08533,6.3172 17.37201,7.87536 4.28668,1.55815 11.84396,3.79693 16.79396,4.97506 4.95,1.17814 12.375,2.55291 16.5,3.05505 4.125,0.50214 13.39136,0.73717 20.5919,0.52228 7.85182,-0.23433 17.25779,-1.2376 23.5,-2.50658 z M 126.49974,295.21439 c -1.65015,-1.03469 -5.51584,-4.9937 -8.59042,-8.79782 -3.07459,-3.80411 -6.95266,-8.94157 -8.61794,-11.41657 -1.66528,-2.475 -4.72665,-7.875 -6.80305,-12 -2.0764,-4.125 -5.033655,-11.21689 -6.571685,-15.75975 -1.53803,-4.54287 -3.55777,-12.81294 -4.4883,-18.37794 -1.2864,-7.6932 -1.56412,-13.62259 -1.15879,-24.74025 0.40264,-11.04387 1.14174,-16.94682 3.02029,-24.12206 1.36797,-5.225 4.26937,-13.62266 6.44756,-18.66147 2.178195,-5.0388 6.545655,-13.04692 9.705465,-17.79582 3.15981,-4.7489 8.52372,-11.53874 11.9198,-15.08854 5.48006,-5.7281 6.6031,-6.45417 9.98293,-6.45417 2.87578,0 4.52397,0.71573 6.73132,2.92308 2.2387,2.23869 2.92308,3.84287 2.92308,6.85165 0,3.38498 -0.84031,4.88046 -6.07287,10.80781 -3.34008,3.78358 -8.09106,10.1173 -10.55774,14.07493 -2.46668,3.95763 -6.00164,10.94123 -7.85546,15.51911 -1.85382,4.57788 -4.1411,11.92342 -5.08286,16.32342 -1.07061,5.00205 -1.73282,12.68429 -1.7671,20.5 -0.0302,6.875 0.51198,15.2 1.20474,18.5 0.69275,3.3 2.19396,8.925 3.336,12.5 1.14205,3.575 3.64926,9.65 5.57159,13.5 1.92232,3.85 5.1846,9.475 7.2495,12.5 2.0649,3.025 6.05383,8.11369 8.86428,11.30819 4.27351,4.85749 5.10992,6.44427 5.10992,9.69424 0,2.59604 -0.74691,4.74566 -2.25,6.47557 -1.32037,1.51961 -3.69609,2.80191 -5.75,3.10357 -2.40775,0.35363 -4.4363,-0.073 -6.50026,-1.36718 z" id="path1"/>
  </g>
</svg>